#N canvas 845 844 596 384 10;
#X msg 351 256 disconnect;
#X obj 282 317 netsend -u -b;
#X obj 134 185 list prepend send;
#X obj 134 210 list trim;
#X floatatom 24 92 5 0 0 0 - - -, f 5;
#X msg 352 232 connect localhost 5510;
#X obj 24 126 oscformat sine frequency;
#X floatatom 189 92 5 0 0 0 - - -, f 5;
#X text 383 32 A vanilla only version of an OSC sender for controling
the sine synth. Use mrpeach or other OSC extensions for a simpler patch.
, f 29;
#X obj 189 126 oscformat sine gain;
#X connect 0 0 1 0;
#X connect 2 0 3 0;
#X connect 3 0 1 0;
#X connect 4 0 6 0;
#X connect 5 0 1 0;
#X connect 6 0 2 0;
#X connect 7 0 9 0;
#X connect 9 0 2 0;
