#N canvas 684 393 988 854 10;
#X obj 495 743 waveguide_string~;
#X obj 559 770 dac~;
#X msg 7 305 pluck 1;
#X msg 70 306 pluck 0;
#X obj 8 209 metro 100;
#X obj 70 261 delay 1;
#X obj -16 130 tgl 15 0 empty empty empty 17 7 0 10 -262144 -1 -1 0
1;
#X floatatom 103 103 5 0 0 0 - - -, f 5;
#X obj 124 153 / 2;
#X obj 572 233 osc~;
#X obj 572 302 snapshot~;
#X obj 511 259 metro 10;
#X obj 511 216 tgl 15 0 empty empty empty 17 7 0 10 -262144 -1 -1 1
1;
#X msg 572 325 length \$1;
#X floatatom 572 196 5 0 0 0 - - -, f 5;
#X obj 306 284 osc~;
#X obj 306 353 snapshot~;
#X obj 240 300 metro 10;
#X obj 240 257 tgl 15 0 empty empty empty 17 7 0 10 -262144 -1 -1 1
1;
#X floatatom 306 253 5 0 0 0 - - -, f 5;
#X msg 306 376 lowpass \$1;
#X obj 306 330 +~ 0.9;
#X obj 306 307 *~ 0.1;
#X obj 784 306 osc~;
#X obj 784 375 snapshot~;
#X obj 717 316 metro 10;
#X obj 717 273 tgl 15 0 empty empty empty 17 7 0 10 -262144 -1 -1 1
1;
#X floatatom 784 281 5 0 0 0 - - -, f 5;
#X obj 784 329 *~ 0.1;
#X msg 784 398 gain \$1;
#X obj 572 279 +~ 3;
#X floatatom 511 295 5 0 0 0 - - -, f 5;
#X obj 784 352 +~ 0.8;
#X obj 572 256 *~ 0.2;
#X floatatom 864 283 5 0 0 0 - - -, f 5;
#X floatatom 374 282 5 0 0 0 - - -, f 5;
#X floatatom 378 309 5 0 0 0 - - -, f 5;
#X text 13 23 Test patch for the waveguide example;
#X text 1 39 - based on additional OSC externals (mrpeach \, iemnet)
;
#X text 456 164 LFO modulation of the string's length;
#X text 188 223 LFO modulation of the termination lowpass;
#X text 685 242 LFO modulation of the termination gain;
#X connect 0 1 1 0;
#X connect 0 2 1 1;
#X connect 2 0 0 0;
#X connect 3 0 0 0;
#X connect 4 0 2 0;
#X connect 4 0 5 0;
#X connect 5 0 3 0;
#X connect 6 0 4 0;
#X connect 7 0 4 1;
#X connect 7 0 8 0;
#X connect 8 0 5 1;
#X connect 9 0 33 0;
#X connect 10 0 13 0;
#X connect 11 0 10 0;
#X connect 12 0 11 0;
#X connect 13 0 0 0;
#X connect 14 0 9 0;
#X connect 15 0 22 0;
#X connect 16 0 20 0;
#X connect 17 0 16 0;
#X connect 18 0 17 0;
#X connect 19 0 15 0;
#X connect 20 0 0 0;
#X connect 21 0 16 0;
#X connect 22 0 21 0;
#X connect 23 0 28 0;
#X connect 24 0 29 0;
#X connect 25 0 24 0;
#X connect 26 0 25 0;
#X connect 27 0 23 0;
#X connect 28 0 32 0;
#X connect 29 0 0 0;
#X connect 30 0 10 0;
#X connect 31 0 13 0;
#X connect 32 0 24 0;
#X connect 33 0 30 0;
#X connect 34 0 32 1;
#X connect 35 0 22 1;
#X connect 36 0 21 1;
